# xmcd
#
# Track frame offsets: 
#        150
#        11242
#        22126
#        32993
#        44964
#        54762
#        66732
#        80646
#        95295
#        105322
#        116923
#        128841
#        141004
#        154862
#        165699
#        177452
#        188103
#        200806
#        214354
#        228623
#        238124
#        247688
#        258560
#        269605
#        280899
#        292955
#        303671
#        314176
#        325790
#
# Disc length: 4530 seconds
#
# Revision: 0
# Processed by: cddbd v1.5.2PL0 Copyright (c) Steve Scherf et al.
# Submitted via: ExactAudioCopy v0.95b4
#
DISCID=cb11b01d
DTITLE=Tennessee Ernie Ford - Howdy Pea-Pickers
DYEAR=2006
DGENRE=Country
TTITLE0=Tennessee Border
TTITLE1=Milk 'Em In The Morning Blues
TTITLE2=Country Junction
TTITLE3=Smokey Mountain Boogie
TTITLE4=Anticipation Blues
TTITLE5=Blues Stay Away From Me (with Merle Travis)
TTITLE6=Mule Train
TTITLE7=The Cry Of The Wild Goose
TTITLE8=The Donkey Serenade
TTITLE9=My Hobby
TTITLE10=I'll Never Be Free (with Kay Starr)
TTITLE11=Ain't Nobody's Business But My Own (with Kay Starr)
TTITLE12=Bright Lights And Blonde Haired Women
TTITLE13=I Ain't Gonna Let It Happen No More
TTITLE14=The Shot-Gun Boogie
TTITLE15=Tailor Made Woman
TTITLE16=Stack-O-Lee
TTITLE17=The Strange Little Girl
TTITLE18=Mister And Mississippi
TTITLE19=Kissin' Bug Boogie
TTITLE20=Hey Good Lookin' (with Helen O'Connell)
TTITLE21=Fatback Louisiana U.S.A.
TTITLE22=Tennessee Local
TTITLE23=Blacberry Boogie
TTITLE24=Sweet Temptation
TTITLE25=Hey, Mr Cotton Picker
TTITLE26=Catfish Boogie
TTITLE27=River Of No Return
TTITLE28=Give Me Your Word
EXTD=
EXTT0=
EXTT1=
EXTT2=
EXTT3=
EXTT4=
EXTT5=
EXTT6=
EXTT7=
EXTT8=
EXTT9=
EXTT10=
EXTT11=
EXTT12=
EXTT13=
EXTT14=
EXTT15=
EXTT16=
EXTT17=
EXTT18=
EXTT19=
EXTT20=
EXTT21=
EXTT22=
EXTT23=
EXTT24=
EXTT25=
EXTT26=
EXTT27=
EXTT28=
PLAYORDER=
